# xmcd CD database file
#
# Track frame offsets:
#	150
#	18010
#	32020
#	48940
#	64392
#	85815
#	101917
#	116360
#	130512
#	147910
#	165015
#	178987
#	196615
#
# Disc length: 2768 seconds
#
# Revision: 5
# Processed by: cddbd v1.5.1PL0 Copyright (c) Steve Scherf et al.
# Submitted via: CDex 1.51
#
DISCID=9e0ace0d,a60ace0d
DTITLE=Höhner - Wartesaal
DYEAR=1994
DGENRE=Kölsch
TTITLE0=Waade
TTITLE1=Ich fahr' voll op Dich ab
TTITLE2=Jung' bliev wie Du bist
TTITLE3=Halt mich fest
TTITLE4=Wartesaal der Träume
TTITLE5=Frag' nit wohin
TTITLE6=Laach sulang Du laache kannst
TTITLE7=Die Welt es joot
TTITLE8=Wann jeiht dr Himmel widder op
TTITLE9=Sag' mir dat Du mich magst
TTITLE10=Vielleicht klappt es ja doch
TTITLE11=Adtschüß (Adjüs)
TTITLE12=Charlies Lied (Tribut an Charly Niedieck)
EXTD=YEAR: 1994
EXTT0=
EXTT1=
EXTT2=
EXTT3=
EXTT4=
EXTT5=
EXTT6=
EXTT7=
EXTT8=
EXTT9=
EXTT10=
EXTT11=
EXTT12=
PLAYORDER=
